# xmcd CD database file
#
# Track frame offsets:
#	150
#	11832
#	26567
#	39718
#	52807
#	65290
#	79555
#	92572
#	105424
#	117931
#	132074
#	144768
#	156813
#	167877
#	180266
#	190951
#	203216
#	217513
#	232164
#	247741
#
# Disc length: 3478 seconds
#
# Revision: 0
# Processed by: cddbd v1.5.2PL0 Copyright (c) Steve Scherf et al.
# Submitted via: CDex 1.70beta2
#
DISCID=f50d9414
DTITLE=Fred Astaire - The Essential Collection Disc2
DYEAR=1952
DGENRE=Jazz
TTITLE0=Shall we dance?
TTITLE1=Let's call the whole thing off
TTITLE2=I've got beginner's luck
TTITLE3=A foggy day in London town
TTITLE4=Nice woek if you can get it
TTITLE5=Change partners
TTITLE6=Who cares?
TTITLE7=Just like taking candy from a baby
TTITLE8=Dream dancing
TTITLE9=So near and yet so far
TTITLE10=You're easy to dance with
TTITLE11=Dearly beloved
TTITLE12=I'm old-fashioned
TTITLE13=You were never lovelier
TTITLE14=A couple of song and dance men
TTITLE15=Fred Astaire - A couple of swells
TTITLE16=How could you believe me when I said I love you, when you know I've been a liar all my life?
TTITLE17=I wanna be a dancin' man
TTITLE18=The continental
TTITLE19=I won't dance
EXTD=YEAR: 1952
EXTT0=
EXTT1=
EXTT2=
EXTT3=
EXTT4=
EXTT5=
EXTT6=
EXTT7=
EXTT8=
EXTT9=
EXTT10=
EXTT11=
EXTT12=
EXTT13=
EXTT14=
EXTT15=
EXTT16=
EXTT17=
EXTT18=
EXTT19=
PLAYORDER=
